# xmcd CD database file
#
# Track frame offsets:
#	150
#	767
#	24304
#	48300
#	69845
#	92569
#	118855
#	147092
#	171956
#	188560
#	209113
#	226839
#	251538
#	275275
#	304737
#	332990
#
# Disc length: 4723 seconds
#
# Revision: 0
# Processed by: cddbd v1.5.2PL0 Copyright (c) Steve Scherf et al.
# Submitted via: CDex 1.51
#
DISCID=d0127110
DTITLE=Various Artist - Best of BellyUp4Blues Volume III
DYEAR=2004
DGENRE=Blues
TTITLE0=Intro
TTITLE1=Wolfe - Crowded In My Soul
TTITLE2=Griff Hamlin Band - When Evil Comes
TTITLE3=Wolf Mail - Takin' Love
TTITLE4=Justin Fox and Catfish Lane - Run To Me
TTITLE5=Oscar Jordan - You Better Run
TTITLE6=Stoney Curtis Band - On Fire
TTITLE7=Tony Sarno - Livin for the Rider
TTITLE8=Paul Zunno Band - Howlin' Wolf
TTITLE9=Arny Kay - Roaches
TTITLE10=Boogie Stuff - Shake
TTITLE11=David Gogo - Halfway To Memphis
TTITLE12=The Monty Guitar Tyler Band - Hang On
TTITLE13=Chigger Red - You Make Me Feel (like drinkin again)
TTITLE14=BB Chung King and the Buddaheads - When the Blues Catch Up With You
TTITLE15=Mean Gene Kelton - Mean Guitar
EXTD=YEAR: 2004
EXTT0=
EXTT1=
EXTT2=
EXTT3=
EXTT4=
EXTT5=
EXTT6=
EXTT7=
EXTT8=
EXTT9=
EXTT10=
EXTT11=
EXTT12=
EXTT13=
EXTT14=
EXTT15=
PLAYORDER=
